<mxfile host="app.diagrams.net" agent="Mozilla/5.0 (X11; Linux x86_64; rv:128.0) Gecko/20100101 Firefox/128.0" version="24.7.4">
  <diagram name="Page-1" id="b-CTBs2derHW3EXyugA0">
    <mxGraphModel dx="1077" dy="659" grid="0" gridSize="10" guides="1" tooltips="1" connect="1" arrows="1" fold="1" page="1" pageScale="1" pageWidth="850" pageHeight="1100" math="0" shadow="0">
      <root>
        <mxCell id="0" />
        <mxCell id="1" parent="0" />
        <mxCell id="y0FiDp1HF2YECac0qwNA-1" value="线程创建" style="ellipse;whiteSpace=wrap;html=1;" vertex="1" parent="1">
          <mxGeometry x="95" y="341" width="97" height="40" as="geometry" />
        </mxCell>
        <mxCell id="y0FiDp1HF2YECac0qwNA-2" value="就绪" style="ellipse;whiteSpace=wrap;html=1;" vertex="1" parent="1">
          <mxGeometry x="246" y="341" width="97" height="40" as="geometry" />
        </mxCell>
        <mxCell id="y0FiDp1HF2YECac0qwNA-3" value="运行" style="ellipse;whiteSpace=wrap;html=1;" vertex="1" parent="1">
          <mxGeometry x="499" y="341" width="97" height="40" as="geometry" />
        </mxCell>
        <mxCell id="y0FiDp1HF2YECac0qwNA-4" value="阻塞" style="ellipse;whiteSpace=wrap;html=1;" vertex="1" parent="1">
          <mxGeometry x="377" y="237" width="97" height="40" as="geometry" />
        </mxCell>
      </root>
    </mxGraphModel>
  </diagram>
</mxfile>
